<?xml version="1.0" encoding="utf-8"?>
<!-- Generator: Adobe Illustrator 18.1.1, SVG Export Plug-In . SVG Version: 6.00 Build 0)  -->
<svg version="1.1" id="Layer_1" xmlns="http://www.w3.org/2000/svg" xmlns:xlink="http://www.w3.org/1999/xlink" x="0px" y="0px"
	 viewBox="0 0 32 29" style="enable-background:new 0 0 32 29;" xml:space="preserve">
<style type="text/css">
	.st0{fill:#FFFFFF;}
</style>
<g>
	<path class="st0" d="M30,3h-2V2c0-1.1-0.9-2-2-2c-1.1,0-2,0.9-2,2v1H8V2c0-1.1-0.9-2-2-2C4.9,0,4,0.9,4,2v1H2C0.9,3,0,3.9,0,5v22
		c0,1.1,0.9,2,2,2h28c1.1,0,2-0.9,2-2V5C32,3.9,31.1,3,30,3z M31,27c0,0.6-0.4,1-1,1H2c-0.6,0-1-0.4-1-1V10h30V27z"/>
	<path class="st0" d="M4.5,13.5v11h23v-11H4.5z M10,23.5H5.5v-4H10V23.5z M10,18.5H5.5v-4H10V18.5z M15.5,23.5H11v-4h4.5V23.5z
		 M15.5,18.5H11v-4h4.5V18.5z M21,23.5h-4.5v-4H21V23.5z M21,18.5h-4.5v-4H21V18.5z M26.5,18.5H22v-4h4.5V18.5z"/>
</g>
</svg>
