<svg width="25" height="25" xmlns="http://www.w3.org/2000/svg" xmlns:svg="http://www.w3.org/2000/svg">
 <g>
  <title>Layer 1</title>
  <path fill="#9B9A96" id="svg_1" d="m14.45318,0.07407c-5.69976,0 -10.32159,4.63033 -10.32159,10.33692c0,2.06088 0.60246,3.97983 1.63905,5.59424c-1.8635,1.86573 -4.73405,4.74268 -4.99689,5.00288c-0.38688,0.38734 -0.77375,0.77468 -0.77375,1.54936s0.38687,1.16202 0.77375,1.54935c0.38687,0.38734 0.77375,0.77468 1.5475,0.77468c0.77375,0 1.16062,-0.38734 1.5475,-0.77468c0.25989,-0.2602 3.13339,-3.13715 4.99689,-5.00288c1.60952,1.03783 3.52913,1.64101 5.58754,1.64101c5.70272,0 10.32454,-4.62737 10.32454,-10.33692s-4.62182,-10.33396 -10.32454,-10.33396zm0,17.57217c-3.99279,0 -7.22659,-3.24064 -7.22659,-7.23526s3.23676,-7.23525 7.22659,-7.23525s7.22659,3.24064 7.22659,7.23525s-3.2338,7.23526 -7.22659,7.23526z"/>
 </g>
</svg>